<svg xmlns="http://www.w3.org/2000/svg" viewBox="0 0 14 16">
    <defs>
        <linearGradient id="a" x1="100%" x2="0%" y1="50%" y2="50%">
            <stop offset="0%" stop-color="#4BCDCC"/>
            <stop offset="100%" stop-color="#01D760"/>
        </linearGradient>
    </defs>
    <g fill="none" fill-rule="evenodd" transform="translate(.438 1.778)">
        <path fill="url(#a)" d="M3.375 8a1 1 0 0 1 1 1v2.556H1.75V9a1 1 0 0 1 1-1h.625zm3.5-1.778a1 1 0 0 1 1 1v4.334H5.25V7.222a1 1 0 0 1 1-1h.625zm3.5-1.778a1 1 0 0 1 1 1v6.112H8.75V5.444a1 1 0 0 1 1-1h.625z"/>
        <rect width="13.125" height="1" y="12" fill="#B2B2B2" rx=".5"/>
        <path fill="#B2B2B2" d="M10.887.285l.009.032a.45.45 0 0 1 .016.074l.002.026v1.812a.438.438 0 0 1-.875 0v-.645c-1.932 1.96-4.383 3.21-7.337 3.745a.438.438 0 0 1-.508-.36.444.444 0 0 1 .354-.515c2.815-.51 5.123-1.697 6.938-3.565h-.752a.444.444 0 1 1 0-.889h1.762l.047.005L10.477 0a.439.439 0 0 1 .2.049l.009.005.012.006c.086.05.154.13.19.225z"/>
    </g>
</svg>
