<svg xmlns="http://www.w3.org/2000/svg" width="29" height="14" viewBox="0 0 29 14">
    <path fill="#FC4C42" fill-rule="nonzero" d="M10.154 2.776c.547 0 1.521.365 2.147 1.02a3.528 3.528 0 0 1 .778 3.65c-.113.312-.59 1.1-.778 1.346-.187.245-.586.7-1.55 1.49-.965.79-2.88 2.101-6.725 3.164-.657.182-1.597.415-1.87.465-.48.088-.886.11-1.286.07a.91.91 0 0 1-.595-.282 1.01 1.01 0 0 1-.252-.458.782.782 0 0 1-.023-.246.72.72 0 0 1 .029-.251.975.975 0 0 1 .511-.622c.041-.02.136-.056.212-.08.778-.255 1.916-.817 2.868-1.419C5.657 9.337 6.051 8.04 6.348 6.84c.296-1.199.927-2.474 1.166-2.76.238-.285.56-.753 1.143-.99.581-.238.95-.314 1.497-.314zm11 0c.547 0 1.521.365 2.147 1.02a3.528 3.528 0 0 1 .778 3.65c-.113.312-.59 1.1-.778 1.346-.187.245-.586.7-1.55 1.49-.965.79-2.88 2.101-6.725 3.164-.657.182-1.597.415-1.87.465-.48.088-.886.11-1.286.07a.91.91 0 0 1-.595-.282 1.01 1.01 0 0 1-.252-.458.782.782 0 0 1-.023-.246.72.72 0 0 1 .029-.251.975.975 0 0 1 .511-.622c.041-.02.136-.056.212-.08.778-.255 1.916-.817 2.868-1.419 2.037-1.286 2.431-2.584 2.728-3.783.296-1.199.927-2.474 1.166-2.76.238-.285.56-.753 1.143-.99.581-.238.95-.314 1.497-.314zm-9.648 1.908c-.105-.041-.172-.033-.287.037-.1.062-.151.133-.164.236-.009.067-.003.1.048.3.086.34.108.556.088.864-.007.098-.021.225-.032.28-.117.633-.464 1.21-1.05 1.75-.3.274-.582.485-.97.723-.247.15-.33.22-.362.302a.349.349 0 0 0 .247.487c.1.023.165.004.354-.108.932-.55 1.627-1.206 2.04-1.925.278-.487.415-.928.45-1.453a3.265 3.265 0 0 0-.134-1.18c-.055-.19-.111-.268-.228-.313zm11 0c-.105-.041-.172-.033-.287.037-.1.062-.151.133-.164.236-.009.067-.003.1.048.3.086.34.108.556.088.864-.007.098-.021.225-.032.28-.117.633-.464 1.21-1.05 1.75-.3.274-.582.485-.97.723-.247.15-.33.22-.362.302a.349.349 0 0 0 .247.487c.1.023.165.004.354-.108.932-.55 1.627-1.206 2.04-1.925.278-.487.415-.928.45-1.453a3.265 3.265 0 0 0-.134-1.18c-.055-.19-.111-.268-.228-.313zM16.376.009c.266-.011.297-.012.552 0 .351.016.718.058.836.094.074.023.162.1.203.177.041.08.045.199.006.277a.498.498 0 0 1-.194.193c-.051.026-.07.03-.179.03a3.66 3.66 0 0 1-.317-.023 4.867 4.867 0 0 0-.6-.022h-.159c-.286.003-.4.013-.667.05-.847.118-1.677.44-2.32.899-.17.122-.229.23-.218.407.006.109.047.197.136.295.237.258.463.617.566.896.071.194.135.477.167.754.026.204.036.564.019.64-.027.12-.141.173-.262.12-.06-.025-.087-.062-.12-.16a3.792 3.792 0 0 0-.315-.665 5.064 5.064 0 0 0-.33-.454 5.438 5.438 0 0 0-.597-.562 4.272 4.272 0 0 0-2.136-.837 1.208 1.208 0 0 1-.152-.023c-.048-.016-.073-.05-.073-.097 0-.092.045-.134.22-.208.257-.11.42-.155.68-.192.166-.024.546-.028.746-.007.318.034.639-.056.9-.25.33-.245.544-.39.774-.52a6.221 6.221 0 0 1 2.834-.812zm11 0c.266-.011.297-.012.552 0 .351.016.718.058.836.094.074.023.162.1.203.177.041.08.045.199.006.277a.498.498 0 0 1-.194.193c-.051.026-.07.03-.179.03a3.66 3.66 0 0 1-.317-.023 4.867 4.867 0 0 0-.6-.022h-.159c-.286.003-.4.013-.667.05-.847.118-1.677.44-2.32.899-.17.122-.229.23-.218.407.006.109.047.197.136.295.237.258.463.617.566.896.071.194.135.477.167.754.026.204.036.564.019.64-.027.12-.141.173-.262.12-.06-.025-.087-.062-.12-.16a3.792 3.792 0 0 0-.315-.665 5.064 5.064 0 0 0-.33-.454 5.438 5.438 0 0 0-.597-.562 4.272 4.272 0 0 0-2.136-.837 1.208 1.208 0 0 1-.152-.023c-.048-.016-.073-.05-.073-.097 0-.092.045-.134.22-.208.257-.11.42-.155.68-.192.166-.024.546-.028.746-.007.318.034.639-.056.9-.25.33-.245.544-.39.774-.52a6.221 6.221 0 0 1 2.834-.812z"/>
</svg>
