<svg xmlns="http://www.w3.org/2000/svg" viewBox="0 0 15 15">
    <path fill-rule="evenodd" d="M12.5 0A2.5 2.5 0 0 1 15 2.5v10a2.5 2.5 0 0 1-2.5 2.5h-10A2.5 2.5 0 0 1 0 12.5v-10A2.5 2.5 0 0 1 2.5 0h10zm0 1.083h-10c-.782 0-1.417.635-1.417 1.417v10c0 .782.635 1.417 1.417 1.417h10c.782 0 1.417-.635 1.417-1.417v-10c0-.782-.635-1.417-1.417-1.417zM8.856 3.182v3.662c.003.195.16.37.33.37.171 0 .327-.175.33-.37V3.182h.723v3.662c.002.195.159.37.33.37.17 0 .327-.175.33-.37V3.182h.454l.459 4.015c.036.547-.089.876-.315 1.129s-.582.426-.99.511c-.201.037-.289.196-.294.382v3.109c0 .162-.043.239-.103.3a.36.36 0 0 1-.253.1c-.1 0-.197-.04-.258-.1-.06-.061-.103-.138-.103-.3V9.225c.003-.187-.147-.344-.33-.388-.407-.071-.755-.224-.97-.458-.224-.243-.352-.573-.284-1.188l.418-4.01h.526zm-3.712 0c.461 0 .93.215 1.308.7.377.485.654 1.25.654 2.316 0 1.377-.621 2.006-1.345 2.391-.142.08-.209.208-.2.33v3.411c0 .163-.05.237-.12.297-.07.06-.18.1-.297.1a.468.468 0 0 1-.297-.1c-.07-.06-.119-.134-.119-.297V8.92a.35.35 0 0 0-.2-.33c-.716-.385-1.346-1.016-1.346-2.392 0-1.067.277-1.83.654-2.316.378-.485.847-.7 1.308-.7z"/>
</svg>
