<svg xmlns="http://www.w3.org/2000/svg"  viewBox="0 0 15 15">
    <path fill-rule="evenodd" d="M4.447 4.996c-.007.124-.013.486-.017.853a1.493 1.493 0 0 0 .378 2.935A1.493 1.493 0 0 0 5.57 6.01c.006-.465.015-.806.023-.962.012-.233.027-.464.046-.685h3.72a18.301 18.301 0 0 1 .07 1.647 1.493 1.493 0 0 0 .764 2.773 1.493 1.493 0 0 0 .38-2.935 43.785 43.785 0 0 0-.013-.717c-.014-.285-.03-.536-.049-.768h2.628c.433 0 .786.343.786.764 0 .04-.004.084-.012.128l-.978 8.054a.78.78 0 0 1-.774.64H2.875a.778.778 0 0 1-.775-.637L1.086 5.254a.745.745 0 0 1 .13-.56.781.781 0 0 1 .645-.33h2.627c-.015.19-.029.399-.041.632zM5.77 3.315c.198-1.18.552-2.26 1.73-2.26 1.18 0 1.533 1.08 1.731 2.26H5.77zm7.37 0h-2.747C10.037.96 9.196 0 7.501 0 5.8 0 4.96.96 4.607 3.315H1.86a1.876 1.876 0 0 0-1.527.777c-.28.391-.389.865-.308 1.333l1.014 8.06c.15.878.922 1.514 1.835 1.514h9.287c.912 0 1.684-.636 1.834-1.517l.978-8.055c.019-.097.026-.198.026-.299 0-1-.834-1.813-1.86-1.813z"/>
</svg>
