<svg xmlns="http://www.w3.org/2000/svg" viewBox="0 0 20 20">
    <path fill="#03C75A" fill-rule="nonzero" d="M7.675 15.649a2.175 2.175 0 1 1 0 4.35 2.175 2.175 0 0 1 0-4.35zm6 0a2.175 2.175 0 1 1 0 4.35 2.175 2.175 0 0 1 0-4.35zm-6 1.315a.86.86 0 1 0 0 1.72.86.86 0 0 0 0-1.72zm6 0a.86.86 0 1 0 0 1.72.86.86 0 0 0 0-1.72zM3.132 3c.301 0 .562.216.625.518l.47 2.23H18.36c.428 0 .735.425.613.846l-2.286 7.877a.642.642 0 0 1-.614.47h-10.7a.644.644 0 0 1-.625-.519L2.616 4.315H.64A.649.649 0 0 1 0 3.658C0 3.294.286 3 .64 3zm14.369 4.064H4.505l1.384 6.561h9.708l1.904-6.56z"/>
</svg>
